# xmcd
#
# Track frame offsets:
#	150
#	15005
#	37500
#	58485
#	77613
#	97398
#	118840
#	135533
#	155013
#	172858
#
# Disc length: 2514 seconds
#
# Revision: 1
# Processed by: cddbd v1.5.1PL0 Copyright (c) Steve Scherf et al.
# Submitted via: CDex 1.50Beta5
#
DISCID=7509d00a
DTITLE=影山ヒロノブ - ドラゴンボールZ ヒット曲集II 奇蹟ZENKAIパワー!!
DYEAR=1989
DGENRE=Soundtrack
TTITLE0=影山ヒロノブ/CHA-LA HEAD-CHA-LA
TTITLE1=TVサントラ/ジョーシキなんてNA★I☆SA
TTITLE2=TVサントラ/大盛り悟飯
TTITLE3=TVサントラ/地球から
TTITLE4=TVサントラ/未来地図
TTITLE5=TVサントラ/天下無敵のフルコース
TTITLE6=TVサントラ/Fly high
TTITLE7=TVサントラ/ALL ALONE
TTITLE8=TVサントラ/1 光年
TTITLE9=MANNA/でてこいとびきりZENKAIパワー!
EXTD=
EXTT0=
EXTT1=
EXTT2=
EXTT3=
EXTT4=
EXTT5=
EXTT6=
EXTT7=
EXTT8=
EXTT9=
PLAYORDER=
